<svg width="48" height="46" viewBox="0 0 48 46" fill="none" xmlns="http://www.w3.org/2000/svg">
<path fill-rule="evenodd" clip-rule="evenodd" d="M35.8871 39.638L37.0139 23.8619L40.8791 24.138L39.7522 39.9141C39.535 42.9558 37.0039 45.3124 33.9545 45.3124H14.0457C10.9962 45.3124 8.46519 42.9558 8.24793 39.9141L7.12106 24.138L10.9862 23.8619L12.1131 39.638C12.1855 40.6519 13.0292 41.4374 14.0457 41.4374H33.9545C34.971 41.4374 35.8146 40.6519 35.8871 39.638Z" fill="#C1F0D0"/>
<path fill-rule="evenodd" clip-rule="evenodd" d="M18.1875 33.6875C18.1875 31.5474 19.9224 29.8125 22.0625 29.8125H25.9375C28.0776 29.8125 29.8125 31.5474 29.8125 33.6875V43.375H25.9375V33.6875H22.0625V43.375H18.1875V33.6875Z" fill="#C1F0D0"/>
<path fill-rule="evenodd" clip-rule="evenodd" d="M9.47083 6.30708C4.64714 9.59066 4.625 14.4002 4.625 16.25C4.625 19.4602 7.22735 22.0626 10.4375 22.0626C12.6234 22.0626 14.5303 20.8568 15.5246 19.0649C15.8662 18.4493 16.5148 18.0675 17.2188 18.0675C17.9227 18.0675 18.5713 18.4493 18.9129 19.0649C19.9072 20.8568 21.8141 22.0626 24 22.0626C26.1859 22.0626 28.0928 20.8568 29.0871 19.0649C29.4287 18.4493 30.0773 18.0675 30.7813 18.0675C31.4852 18.0675 32.1338 18.4493 32.4754 19.0649C33.4697 20.8568 35.3766 22.0626 37.5625 22.0626C40.7727 22.0626 43.375 19.4603 43.375 16.2501C43.375 14.4003 43.3529 9.59066 38.5292 6.30708C37.3587 5.7507 35.364 5.25719 32.7654 4.91071C30.1419 4.56091 27.0809 4.38278 24 4.38278C20.9191 4.38278 17.8581 4.56091 15.2346 4.91071C12.636 5.25719 10.6413 5.7507 9.47083 6.30708ZM33.2776 1.06971C36.0493 1.43927 38.6145 2.01603 40.3665 2.89204C40.4383 2.92797 40.5079 2.96833 40.5747 3.01289C47.2503 7.46328 47.2501 14.1933 47.25 16.2299V16.25C47.25 21.6003 42.9128 25.9376 37.5625 25.9376C34.9207 25.9376 32.5274 24.8797 30.7813 23.168C29.0351 24.8797 26.6418 25.9376 24 25.9376C21.3582 25.9376 18.9649 24.8797 17.2188 23.168C15.4726 24.8797 13.0793 25.9376 10.4375 25.9376C5.08724 25.9376 0.750001 21.6004 0.750001 16.2501L0.750001 16.2299C0.749926 14.1933 0.749679 7.46328 7.42527 3.01289C7.49211 2.96833 7.56166 2.92797 7.63352 2.89204C9.38552 2.01603 11.9507 1.43927 14.7224 1.0697C17.5481 0.692941 20.784 0.507782 24 0.507782C27.216 0.507782 30.4519 0.692943 33.2776 1.06971Z" fill="#C1F0D0"/>
</svg>
