<svg width="50" height="34" viewBox="0 0 50 34" fill="none" xmlns="http://www.w3.org/2000/svg">
<path fill-rule="evenodd" clip-rule="evenodd" d="M10.31 0.500005C10.3523 0.500007 10.3949 0.500009 10.4375 0.500009L37.6901 0.500005C39.4076 0.499908 40.8875 0.499825 42.0726 0.659157C43.3427 0.829912 44.5601 1.21498 45.5476 2.20245C46.535 3.18992 46.9201 4.40735 47.0909 5.67741C47.2502 6.86252 47.2501 8.34242 47.25 10.06V23.8775C47.2501 25.5951 47.2502 27.075 47.0909 28.2601C46.9201 29.5302 46.535 30.7476 45.5476 31.7351C44.5601 32.7225 43.3427 33.1076 42.0726 33.2784C40.8875 33.4377 39.4076 33.4376 37.69 33.4375H10.31C8.59242 33.4376 7.11252 33.4377 5.92741 33.2784C4.65735 33.1076 3.43992 32.7225 2.45245 31.7351C1.46498 30.7476 1.07991 29.5302 0.909157 28.2601C0.749825 27.075 0.749908 25.5951 0.750005 23.8776L0.750009 10.1875C0.750009 10.1449 0.750007 10.1023 0.750005 10.06C0.749908 8.34239 0.749825 6.86251 0.909157 5.67741C1.07991 4.40735 1.46498 3.18992 2.45245 2.20245C3.43992 1.21498 4.65735 0.829912 5.92741 0.659157C7.11251 0.499825 8.5924 0.499908 10.31 0.500005ZM6.44375 4.4996C5.60338 4.61259 5.33998 4.795 5.19249 4.94249C5.045 5.08998 4.86259 5.35338 4.7496 6.19375C4.62912 7.08985 4.62501 8.30604 4.62501 10.1875V23.75C4.62501 25.6315 4.62912 26.8477 4.7496 27.7438C4.86259 28.5841 5.045 28.8475 5.19249 28.995C5.33998 29.1425 5.60338 29.3249 6.44375 29.4379C7.33985 29.5584 8.55604 29.5625 10.4375 29.5625H37.5625C39.444 29.5625 40.6602 29.5584 41.5563 29.4379C42.3966 29.3249 42.66 29.1425 42.8075 28.995C42.955 28.8475 43.1374 28.5841 43.2504 27.7438C43.3709 26.8477 43.375 25.6315 43.375 23.75V10.1875C43.375 8.30604 43.3709 7.08985 43.2504 6.19375C43.1374 5.35338 42.955 5.08998 42.8075 4.94249C42.66 4.795 42.3966 4.61259 41.5563 4.4996C40.6602 4.37912 39.444 4.37501 37.5625 4.37501H10.4375C8.55604 4.37501 7.33985 4.37912 6.44375 4.4996Z" fill="#C1F0D0"/>
<path fill-rule="evenodd" clip-rule="evenodd" d="M39.5766 23.5675C40.3455 22.8108 41.592 22.8108 42.3609 23.5675L49.2515 30.3487C50.0203 31.1054 50.0203 32.3321 49.2515 33.0888C48.4826 33.8454 47.2361 33.8454 46.4673 33.0888L39.5766 26.3075C38.8078 25.5509 38.8078 24.3241 39.5766 23.5675Z" fill="#C1F0D0"/>
<path d="M44 19.5C44 24.7467 39.7467 29 34.5 29C29.2533 29 25 24.7467 25 19.5C25 14.2533 29.2533 10 34.5 10C39.7467 10 44 14.2533 44 19.5Z" fill="#C1F0D0"/>
<path fill-rule="evenodd" clip-rule="evenodd" d="M8 7.9375C8 6.86745 8.88144 6 9.96875 6H21.7812C22.8686 6 23.75 6.86745 23.75 7.9375C23.75 9.00755 22.8686 9.875 21.7812 9.875H9.96875C8.88144 9.875 8 9.00755 8 7.9375Z" fill="#C1F0D0"/>
<path fill-rule="evenodd" clip-rule="evenodd" d="M8 15.6875C8 14.6174 8.88144 13.75 9.96875 13.75H17.8438C18.9311 13.75 19.8125 14.6174 19.8125 15.6875C19.8125 16.7576 18.9311 17.625 17.8438 17.625H9.96875C8.88144 17.625 8 16.7576 8 15.6875Z" fill="#C1F0D0"/>
<path fill-rule="evenodd" clip-rule="evenodd" d="M8 23.4375C8 22.3674 8.88144 21.5 9.96875 21.5H17.8438C18.9311 21.5 19.8125 22.3674 19.8125 23.4375C19.8125 24.5076 18.9311 25.375 17.8438 25.375H9.96875C8.88144 25.375 8 24.5076 8 23.4375Z" fill="#C1F0D0"/>
</svg>
