<svg width="82" height="95" viewBox="0 0 82 95" fill="none" xmlns="http://www.w3.org/2000/svg">
<path d="M40.9999 35.345C50.1271 35.345 57.5261 27.8805 57.5261 18.6725C57.5261 9.46453 50.1271 2 40.9999 2C31.8727 2 24.4736 9.46453 24.4736 18.6725C24.4736 27.8805 31.8727 35.345 40.9999 35.345Z" stroke="#C1F0D0" stroke-width="4" stroke-miterlimit="10" stroke-linecap="round"/>
<path d="M18.185 91.8462C15.65 91.4562 13.31 90.92 11.2138 90.1887C6.72875 88.58 3.4625 85.9475 2.43875 81.6087C2.0975 79.805 2 78.05 2 76.1975C2 54.5525 19.5013 36.9537 41 36.9537C62.4987 36.9537 80 54.5525 80 76.2462C80 78.0987 79.9025 79.8537 79.5612 81.6575C77.0262 93.7962 50.945 92.7237 36.125 92.7237" stroke="#C1F0D0" stroke-width="4" stroke-miterlimit="10" stroke-linecap="round"/>
</svg>
