<svg width="50" height="45" viewBox="0 0 50 45" fill="none" xmlns="http://www.w3.org/2000/svg">
<path fill-rule="evenodd" clip-rule="evenodd" d="M40.5 17.2489L38.8196 40.775C38.6747 42.8028 36.9874 44.3739 34.9544 44.3739H15.0456C13.0126 44.3739 11.3253 42.8028 11.1804 40.775L9.5 17.2489H40.5ZM23.0625 32.7489C21.9924 32.7489 21.125 33.6163 21.125 34.6864V38.5614C21.125 39.6315 21.9924 40.4989 23.0625 40.4989H26.9375C28.0075 40.4989 28.875 39.6315 28.875 38.5614V34.6864C28.875 33.6163 28.0075 32.7489 26.9375 32.7489H23.0625Z" fill="#C1F0D0"/>
<path fill-rule="evenodd" clip-rule="evenodd" d="M40.5 5.62499C34.6875 2.71872 15.3125 2.71871 9.5 5.62499C3.6875 9.49999 3.6875 15.3125 3.6875 17.25C3.6875 17.25 3.6875 17.2501 3.6875 17.2501C3.6875 21.5303 7.15729 25.0001 11.4375 25.0001C14.3554 25.0001 16.8967 23.3875 18.2188 21.005C19.5408 23.3875 22.0821 25.0001 25 25.0001C27.9179 25.0001 30.4592 23.3875 31.7812 21.005C33.1033 23.3875 35.6446 25.0001 38.5625 25.0001C42.8427 25.0001 46.3125 21.5303 46.3125 17.2501C46.3125 17.2501 46.3125 17.25 46.3125 17.25C46.3125 15.3125 46.3125 9.49999 40.5 5.62499Z" fill="#C1F0D0"/>
<path fill-rule="evenodd" clip-rule="evenodd" d="M8.03845 3.10648L8.20028 3.02557C10.1017 2.07484 12.7991 1.48216 15.5944 1.10945C18.4707 0.72595 21.7502 0.539032 25 0.539032C28.2498 0.539032 31.5294 0.725952 34.4056 1.10945C37.2009 1.48216 39.8983 2.07484 41.7997 3.02556L41.9616 3.10648L42.1121 3.20684C49.2195 7.94508 49.2189 15.1339 49.2188 17.2213V17.25C49.2188 23.1353 44.4478 27.9063 38.5625 27.9063C35.9846 27.9063 33.6223 26.9905 31.7813 25.47C29.9402 26.9905 27.5779 27.9063 25 27.9063C22.4221 27.9063 20.0598 26.9905 18.2188 25.47C16.3777 26.9905 14.0154 27.9063 11.4375 27.9063C5.55222 27.9063 0.781253 23.1354 0.781253 17.2501L0.781251 17.2213C0.781095 15.1339 0.780555 7.94508 7.88791 3.20684L8.03845 3.10648ZM16.2464 23.3281C17.0473 22.6936 17.7198 21.9041 18.2188 21.005C18.7177 21.9041 19.3902 22.6936 20.1911 23.3281C21.5125 24.375 23.1832 25.0001 25 25.0001C26.8168 25.0001 28.4875 24.375 29.8089 23.3281C30.6098 22.6936 31.2823 21.9041 31.7813 21.005C32.2802 21.9041 32.9527 22.6936 33.7536 23.3281C35.075 24.375 36.7457 25.0001 38.5625 25.0001C42.8427 25.0001 46.3125 21.5303 46.3125 17.2501C46.3125 15.3126 46.3125 9.49999 40.5 5.62499C34.6875 2.71872 15.3125 2.71871 9.5 5.62499C3.6875 9.49999 3.6875 15.3125 3.6875 17.25C3.6875 21.5302 7.1573 25.0001 11.4375 25.0001C13.2543 25.0001 14.925 24.375 16.2464 23.3281Z" fill="white"/>
</svg>
